<svg width="896" height="748" viewBox="0 0 896 748" fill="none" xmlns="http://www.w3.org/2000/svg">
<path d="M362.06 702.184H125.274V700.481H360.356V617.861H145.18L134.727 596.084L136.263 595.347L146.252 616.157H362.06V702.184Z" fill="#FF9900"/>
<path d="M156.788 743.92C166.667 743.92 174.675 735.912 174.675 726.033C174.675 716.154 166.667 708.146 156.788 708.146C146.91 708.146 138.901 716.154 138.901 726.033C138.901 735.912 146.91 743.92 156.788 743.92Z" fill="#FF9900"/>
<path d="M333.101 743.92C342.979 743.92 350.987 735.912 350.987 726.033C350.987 716.154 342.979 708.146 333.101 708.146C323.222 708.146 315.214 716.154 315.214 726.033C315.214 735.912 323.222 743.92 333.101 743.92Z" fill="#FF9900"/>
<path d="M540.927 357.226C547.043 357.226 552 352.268 552 346.153C552 340.038 547.043 335.08 540.927 335.08C534.812 335.08 529.854 340.038 529.854 346.153C529.854 352.268 534.812 357.226 540.927 357.226Z" fill="#FF9900"/>
<path d="M387.385 589.753H121.237L63.6484 401.517H446.693L446.344 402.624L387.385 589.753ZM122.497 588.05H386.136L444.37 403.22H65.9508L122.497 588.05Z" fill="#FF9900"/>
<path d="M451.465 384.7L449.818 384.263L461.059 341.894H526.448V343.598H462.37L451.465 384.7Z" fill="#FF9900"/>
<path d="M427.552 458.584H82.2588V460.287H427.552V458.584Z" fill="#FF9900"/>
<path d="M407.778 521.344H101.459V523.047H407.778V521.344Z" fill="#FF9900"/>
<path d="M256.017 402.368H254.313V588.901H256.017V402.368Z" fill="#FF9900"/>
<path d="M332.286 402.315L320.058 588.843L321.758 588.955L333.986 402.426L332.286 402.315Z" fill="#FF9900"/>
<path d="M178.081 402.313L176.381 402.424L188.538 588.957L190.238 588.846L178.081 402.313Z" fill="#FF9900"/>
<path d="M896 745H0V747H896V745Z" fill="#FF9900"/>
</svg>
